<svg width="149" height="37" xmlns="http://www.w3.org/2000/svg" version="1.1" xmlns:xlink="http://www.w3.org/1999/xlink"
    xmlns:svgjs="http://svgjs.dev/svgjs"  viewBox="0 0 1500 1518">
    <g transform="matrix(1,0,0,1,1.325901639344238,0.6145748987853494)">
        <svg viewBox="0 0 244 247" data-background-color="#ffffff"
            preserveAspectRatio="xMidYMid meet" height="1518" width="1500"
            xmlns="http://www.w3.org/2000/svg" xmlns:xlink="http://www.w3.org/1999/xlink">
            <g id="tight-bounds"
                transform="matrix(1,0,0,1,-0.21567999999999188,-0.09999999999999432)">
                <svg viewBox="0 0 244.43135999999998 247.2" height="247.2"
                    width="244.43135999999998">
                    <g>
                        <svg></svg>
                    </g>
                    <g>
                        <svg viewBox="0 0 244.43135999999998 247.2" height="247.2"
                            width="244.43135999999998">
                            <g transform="matrix(1,0,0,1,0,107.43036421147114)">
                                <svg viewBox="0 0 244.43135999999998 32.33927157705771"
                                    height="32.33927157705771" width="244.43135999999998">
                                    <g>
                                        <svg viewBox="0 0 244.43135999999998 32.33927157705771"
                                            height="32.33927157705771" width="244.43135999999998">
                                            <g>
                                                <svg
                                                    viewBox="0 0 244.43135999999998 32.33927157705771"
                                                    height="32.33927157705771"
                                                    width="244.43135999999998">
                                                    <g>
                                                        <svg
                                                            viewBox="0 0 244.43135999999998 32.33927157705771"
                                                            height="32.33927157705771"
                                                            width="244.43135999999998">
                                                            <g id="textblocktransform">
                                                                <svg
                                                                    viewBox="0 0 244.43135999999998 32.33927157705771"
                                                                    height="32.33927157705771"
                                                                    width="244.43135999999998"
                                                                    id="textblock">
                                                                    <g>
                                                                        <svg
                                                                            viewBox="0 0 244.43135999999998 32.33927157705771"
                                                                            height="32.33927157705771"
                                                                            width="244.43135999999998">
                                                                            <g
                                                                                transform="matrix(1,0,0,1,0,0)">
                                                                                <svg
                                                                                    width="244.43135999999998"
                                                                                    viewBox="3 -35.5 271.97 35.99"
                                                                                    height="32.33927157705771"
                                                                                    data-palette-color="#e09f05">
                                                                                    <path
                                                                                        d="M23.19-9.16L23.19-8.11Q23.19-6.32 22.47-4.76 21.75-3.2 20.54-2.03 19.34-0.85 17.74-0.18 16.14 0.49 14.36 0.49L14.36 0.49 11.84 0.49Q10.06 0.49 8.46-0.18 6.86-0.85 5.65-2.03 4.44-3.2 3.72-4.76 3-6.32 3-8.11L3-8.11 3-9.5 6.15-10.01 6.15-8.11Q6.15-6.93 6.63-5.92 7.1-4.91 7.91-4.14 8.72-3.37 9.78-2.93 10.84-2.49 12.01-2.49L12.01-2.49 14.21-2.49Q15.38-2.49 16.43-2.93 17.48-3.37 18.29-4.14 19.09-4.91 19.57-5.92 20.04-6.93 20.04-8.11L20.04-8.11 20.04-9.16Q20.04-10.96 19.34-12.16 18.63-13.35 17.46-14.2 16.28-15.04 14.81-15.63 13.33-16.21 11.77-16.8 10.21-17.38 8.73-18.09 7.25-18.8 6.08-19.86 4.91-20.92 4.2-22.46 3.49-24 3.49-26.25L3.49-26.25 3.49-26.9Q3.49-28.69 4.16-30.25 4.83-31.81 6.01-32.98 7.18-34.16 8.75-34.83 10.33-35.5 12.11-35.5L12.11-35.5 14.36-35.5Q16.14-35.5 17.7-34.83 19.26-34.16 20.43-32.98 21.61-31.81 22.28-30.25 22.95-28.69 22.95-26.9L22.95-26.9 22.95-26 19.8-25.49 19.8-26.9Q19.8-28.08 19.36-29.09 18.92-30.1 18.16-30.86 17.41-31.62 16.39-32.06 15.38-32.5 14.21-32.5L14.21-32.5 12.26-32.5Q11.08-32.5 10.07-32.06 9.06-31.62 8.29-30.86 7.52-30.1 7.08-29.09 6.64-28.08 6.64-26.9L6.64-26.9 6.64-26.25Q6.64-24.56 7.35-23.41 8.06-22.27 9.23-21.45 10.4-20.63 11.88-20.03 13.35-19.43 14.92-18.81 16.48-18.19 17.96-17.44 19.43-16.7 20.61-15.61 21.78-14.53 22.49-12.96 23.19-11.4 23.19-9.16L23.19-9.16ZM45.65 0L42.65 0 42.65-18.31Q42.65-19.21 42.31-20.01 41.97-20.8 41.38-21.39 40.79-21.97 40-22.31 39.21-22.66 38.3-22.66L38.3-22.66 36.3-22.66Q35.4-22.66 34.6-22.31 33.81-21.97 33.23-21.39 32.64-20.8 32.3-20.01 31.96-19.21 31.96-18.31L31.96-18.31 31.96 0 28.95 0 28.95-35.01 31.96-35.01 31.96-22.9Q32.98-24.12 34.42-24.8 35.86-25.49 37.55-25.49L37.55-25.49 38.3-25.49Q39.82-25.49 41.16-24.91 42.5-24.34 43.5-23.34 44.5-22.34 45.08-21 45.65-19.65 45.65-18.14L45.65-18.14 45.65 0ZM68.35-6.86L68.35-6.86Q68.35-5.35 67.78-4 67.21-2.66 66.21-1.66 65.2-0.66 63.86-0.09 62.52 0.49 61.01 0.49L61.01 0.49 59 0.49Q57.49 0.49 56.15-0.09 54.8-0.66 53.8-1.66 52.8-2.66 52.23-4 51.66-5.35 51.66-6.86L51.66-6.86 51.66-18.14Q51.66-19.65 52.23-21 52.8-22.34 53.8-23.34 54.8-24.34 56.15-24.91 57.49-25.49 59-25.49L59-25.49 61.01-25.49Q62.52-25.49 63.86-24.91 65.2-24.34 66.21-23.34 67.21-22.34 67.78-21 68.35-19.65 68.35-18.14L68.35-18.14 68.35-6.86ZM65.35-6.69L65.35-18.31Q65.35-19.21 65.01-20.01 64.67-20.8 64.08-21.39 63.5-21.97 62.7-22.31 61.91-22.66 61.01-22.66L61.01-22.66 59-22.66Q58.1-22.66 57.31-22.31 56.51-21.97 55.93-21.39 55.34-20.8 55-20.01 54.66-19.21 54.66-18.31L54.66-18.31 54.66-6.69Q54.66-5.79 55-4.99 55.34-4.2 55.93-3.61 56.51-3.03 57.31-2.69 58.1-2.34 59-2.34L59-2.34 61.01-2.34Q61.91-2.34 62.7-2.69 63.5-3.03 64.08-3.61 64.67-4.2 65.01-4.99 65.35-5.79 65.35-6.69L65.35-6.69ZM103.75-25L95.4 0 93.77 0 87.91-18.85 87.81-20.14 87.71-18.85 81.85 0 80.19 0 71.84-25 74.89-25 80.85-6.1 80.95-4.81 81.05-6.1 86.91-25 88.71-25 94.55-6.1 94.65-4.81 94.74-6.1 100.7-25 103.75-25ZM111.27 0L108.27 0 108.27-35.01 111.27-35.01 111.27 0ZM134.97 0L133.97 0 132.31-2.54Q131.29-1.15 129.75-0.33 128.21 0.49 126.38 0.49L126.38 0.49 125.62 0.49Q124.11 0.49 122.77-0.09 121.42-0.66 120.42-1.66 119.42-2.66 118.85-4 118.27-5.35 118.27-6.86L118.27-6.86 118.27-25 121.28-25 121.28-6.69Q121.28-5.79 121.62-4.99 121.96-4.2 122.55-3.61 123.13-3.03 123.93-2.69 124.72-2.34 125.62-2.34L125.62-2.34 127.62-2.34Q128.53-2.34 129.32-2.69 130.11-3.03 130.7-3.61 131.29-4.2 131.63-4.99 131.97-5.79 131.97-6.69L131.97-6.69 131.97-25 134.97-25 134.97 0ZM157.68-25L148.81 0 147.32 0 138.46-25 141.46-25 147.98-6.05 148.08-4.76 148.18-6.05 154.67-25 157.68-25ZM189.12 0L186.8-8.15 175.71-8.15 173.42 0 170.15 0 180.4-35.01 182.06-35.01 192.36 0 189.12 0ZM181.16-27.29L176.57-11.16 185.97-11.16 181.35-27.29 181.25-28.59 181.16-27.29ZM207.2-32.15L204.45-32.15Q203.69-32.15 203.04-31.87 202.39-31.59 201.91-31.1 201.42-30.62 201.14-29.96 200.86-29.3 200.86-28.54L200.86-28.54 200.86-25 206.69-25 206.69-22.14 200.86-22.14 200.86 0 197.85 0 197.85-22.14 193.34-22.14 193.34-25 197.85-25 197.85-28.39Q197.85-29.76 198.37-30.97 198.88-32.18 199.78-33.08 200.69-33.98 201.88-34.5 203.08-35.01 204.45-35.01L204.45-35.01 207.2-35.01 207.2-32.15ZM220.56-22.14L217.55-22.14Q216.65-22.14 215.86-21.8 215.06-21.46 214.48-20.87 213.89-20.29 213.55-19.49 213.21-18.7 213.21-17.8L213.21-17.8 213.21 0 210.2 0 210.2-25 211.21-25 212.84-22.46Q213.87-23.85 215.42-24.67 216.97-25.49 218.8-25.49L218.8-25.49 220.56-25.49 220.56-22.14ZM228.81-31.01L225.31-31.01 225.31-35.01 228.81-35.01 228.81-31.01ZM228.56 0L225.56 0 225.56-25 228.56-25 228.56 0ZM252.26-6.86L252.26-6.86Q252.26-5.35 251.69-4 251.12-2.66 250.12-1.66 249.12-0.66 247.77-0.09 246.43 0.49 244.92 0.49L244.92 0.49 242.91 0.49Q241.4 0.49 240.06-0.09 238.72-0.66 237.71-1.66 236.71-2.66 236.14-4 235.57-5.35 235.57-6.86L235.57-6.86 235.57-18.14Q235.57-19.65 236.14-21 236.71-22.34 237.71-23.34 238.72-24.34 240.06-24.91 241.4-25.49 242.91-25.49L242.91-25.49 244.92-25.49Q246.43-25.49 247.77-24.91 249.12-24.34 250.12-23.34 251.12-22.34 251.69-21 252.26-19.65 252.26-18.14L252.26-18.14 252.26-17.14 249.26-16.65 249.26-18.31Q249.26-19.21 248.92-20.01 248.58-20.8 247.99-21.39 247.41-21.97 246.61-22.31 245.82-22.66 244.92-22.66L244.92-22.66 242.91-22.66Q242.01-22.66 241.22-22.31 240.42-21.97 239.84-21.39 239.25-20.8 238.91-20.01 238.57-19.21 238.57-18.31L238.57-18.31 238.57-6.69Q238.57-5.79 238.91-4.99 239.25-4.2 239.84-3.61 240.42-3.03 241.22-2.69 242.01-2.34 242.91-2.34L242.91-2.34 244.92-2.34Q245.82-2.34 246.61-2.69 247.41-3.03 247.99-3.61 248.58-4.2 248.92-4.99 249.26-5.79 249.26-6.69L249.26-6.69 249.26-8.35 252.26-7.86 252.26-6.86ZM274.97 0L273.97 0 272.31-2.49Q271.28-1.15 269.74-0.33 268.2 0.49 266.37 0.49L266.37 0.49 265.62 0.49Q264.1 0.49 262.76-0.09 261.42-0.66 260.42-1.66 259.42-2.66 258.84-4 258.27-5.35 258.27-6.86L258.27-6.86 258.27-7.1Q258.27-8.62 258.84-9.96 259.42-11.3 260.42-12.3 261.42-13.31 262.76-13.88 264.1-14.45 265.62-14.45L265.62-14.45 271.96-14.45 271.96-18.31Q271.96-19.21 271.62-20.01 271.28-20.8 270.7-21.39 270.11-21.97 269.32-22.31 268.52-22.66 267.62-22.66L267.62-22.66 265.86-22.66Q264.96-22.66 264.16-22.31 263.37-21.97 262.78-21.39 262.2-20.8 261.86-20.01 261.52-19.21 261.52-18.31L261.52-18.31 261.52-17.41 258.51-17.9 258.51-18.14Q258.51-19.65 259.09-21 259.66-22.34 260.66-23.34 261.66-24.34 263-24.91 264.35-25.49 265.86-25.49L265.86-25.49 267.62-25.49Q269.13-25.49 270.48-24.91 271.82-24.34 272.82-23.34 273.82-22.34 274.39-21 274.97-19.65 274.97-18.14L274.97-18.14 274.97 0ZM271.96-6.69L271.96-12.11 265.62-12.11Q264.71-12.11 263.92-11.77 263.13-11.43 262.54-10.83 261.95-10.23 261.61-9.44 261.27-8.64 261.27-7.74L261.27-7.74 261.27-6.69Q261.27-5.79 261.61-4.99 261.95-4.2 262.54-3.61 263.13-3.03 263.92-2.69 264.71-2.34 265.62-2.34L265.62-2.34 267.62-2.34Q268.52-2.34 269.32-2.69 270.11-3.03 270.7-3.61 271.28-4.2 271.62-4.99 271.96-5.79 271.96-6.69L271.96-6.69Z"
                                                                                        opacity="1"
                                                                                        transform="matrix(1,0,0,1,0,0)"
                                                                                        fill="#e09f05"
                                                                                        class="wordmark-text-0"
                                                                                        data-fill-palette-color="primary"
                                                                                        id="text-0"></path>
                                                                                </svg>
                                                                            </g>
                                                                        </svg>
                                                                    </g>
                                                                </svg>
                                                            </g>
                                                        </svg>
                                                    </g>
                                                    <g></g>
                                                </svg>
                                            </g>
                                        </svg>
                                    </g>
                                </svg>
                            </g>
                            <path
                                d="M0 101.43L0 1 244.431 1 244.431 101.43 241.515 101.43 241.515 3.916 2.916 3.916 2.916 101.43 0 101.43M0 145.77L0 246.2 244.431 246.2 244.431 145.77 241.515 145.77 241.515 243.284 2.916 243.284 2.916 145.77 0 145.77"
                                fill="#e09f05" stroke="transparent"
                                data-fill-palette-color="tertiary"></path>
                        </svg>
                    </g>
                    <defs></defs>
                </svg>
                <rect width="244.43135999999998" height="247.2" fill="none" stroke="none"
                    visibility="hidden"></rect>
            </g>
        </svg>
    </g>
</svg>